<svg xmlns="http://www.w3.org/2000/svg" width="1200" height="760" viewBox="0 0 1200 760" role="img" aria-labelledby="title desc">
  <title id="title">DaggTrade product visual</title>
  <desc id="desc">A Solana DEX aggregation dashboard with routing, liquidity sources, prices, and slippage.</desc>
  <defs>
    <linearGradient id="bg" x1="0" x2="1" y1="0" y2="1">
      <stop offset="0" stop-color="#0b1120"/>
      <stop offset="0.48" stop-color="#312e81"/>
      <stop offset="1" stop-color="#7c3aed"/>
    </linearGradient>
    <filter id="shadow" x="-20%" y="-20%" width="140%" height="140%">
      <feDropShadow dx="0" dy="22" stdDeviation="22" flood-color="#020617" flood-opacity="0.28"/>
    </filter>
  </defs>
  <rect width="1200" height="760" rx="44" fill="url(#bg)"/>
  <path d="M120 595 C270 480, 300 620, 450 505 S700 355, 840 445 S1000 525, 1100 405" fill="none" stroke="#a78bfa" stroke-width="5" opacity="0.5"/>
  <g filter="url(#shadow)">
    <rect x="118" y="108" width="964" height="536" rx="34" fill="#f8fafc"/>
    <rect x="118" y="108" width="964" height="72" rx="34" fill="#111827"/>
    <rect x="118" y="150" width="964" height="30" fill="#111827"/>
  </g>
  <text x="158" y="154" font-family="Inter, Arial, sans-serif" font-size="30" font-weight="900" fill="#ffffff">DAGG Trade</text>
  <text x="360" y="154" font-family="Inter, Arial, sans-serif" font-size="16" fill="#c4b5fd">Solana DEX Aggregation</text>
  <rect x="890" y="130" width="142" height="30" rx="15" fill="#22c55e"/>
  <text x="918" y="151" font-family="Inter, Arial, sans-serif" font-size="14" font-weight="800" fill="#052e16">Route Ready</text>
  <g font-family="Inter, Arial, sans-serif">
    <text x="158" y="236" font-size="17" font-weight="800" fill="#334155">Swap Route</text>
    <rect x="158" y="258" width="326" height="258" rx="22" fill="#ffffff" stroke="#d8b4fe"/>
    <text x="186" y="309" font-size="35" font-weight="900" fill="#111827">SOL</text>
    <text x="392" y="309" font-size="35" font-weight="900" fill="#111827">USDC</text>
    <path d="M255 296 H360" stroke="#7c3aed" stroke-width="5" stroke-linecap="round"/>
    <path d="M347 282 L364 296 L347 310" fill="none" stroke="#7c3aed" stroke-width="5" stroke-linecap="round" stroke-linejoin="round"/>
    <rect x="186" y="350" width="270" height="42" rx="13" fill="#f5f3ff"/>
    <text x="205" y="377" font-size="16" fill="#4c1d95">Best route: Serum + Raydium</text>
    <rect x="186" y="410" width="122" height="64" rx="15" fill="#ede9fe"/>
    <rect x="334" y="410" width="122" height="64" rx="15" fill="#dcfce7"/>
    <text x="207" y="438" font-size="14" fill="#5b21b6">Slippage</text>
    <text x="207" y="462" font-size="22" font-weight="900" fill="#4c1d95">0.18%</text>
    <text x="356" y="438" font-size="14" fill="#166534">Savings</text>
    <text x="356" y="462" font-size="22" font-weight="900" fill="#14532d">$42</text>
    <text x="548" y="236" font-size="17" font-weight="800" fill="#334155">Liquidity Sources</text>
    <rect x="548" y="258" width="220" height="258" rx="22" fill="#ffffff" stroke="#cbd5e1"/>
    <rect x="578" y="302" width="160" height="22" rx="11" fill="#a78bfa"/>
    <rect x="578" y="356" width="118" height="22" rx="11" fill="#60a5fa"/>
    <rect x="578" y="410" width="142" height="22" rx="11" fill="#34d399"/>
    <text x="578" y="292" font-size="13" fill="#64748b">Serum orderbook</text>
    <text x="578" y="346" font-size="13" fill="#64748b">Raydium pool</text>
    <text x="578" y="400" font-size="13" fill="#64748b">Future DEX route</text>
    <text x="820" y="236" font-size="17" font-weight="800" fill="#334155">Market Dashboard</text>
    <rect x="820" y="258" width="222" height="258" rx="22" fill="#ffffff" stroke="#cbd5e1"/>
    <polyline points="846,459 878,420 910,434 942,370 974,392 1012,326" fill="none" stroke="#7c3aed" stroke-width="5" stroke-linecap="round" stroke-linejoin="round"/>
    <rect x="846" y="302" width="156" height="18" rx="9" fill="#e2e8f0"/>
    <rect x="846" y="338" width="108" height="18" rx="9" fill="#e2e8f0"/>
  </g>
</svg>
