<svg xmlns="http://www.w3.org/2000/svg" width="1200" height="760" viewBox="0 0 1200 760" role="img" aria-labelledby="title desc">
  <title id="title">LiquidAI product visual</title>
  <desc id="desc">An AI-powered liquidity dashboard with live pools, reasoning cards, and portfolio rebalancing.</desc>
  <defs>
    <linearGradient id="bg" x1="0" x2="1" y1="0" y2="1">
      <stop offset="0" stop-color="#052e2b"/>
      <stop offset="0.5" stop-color="#0f766e"/>
      <stop offset="1" stop-color="#38bdf8"/>
    </linearGradient>
    <filter id="shadow" x="-20%" y="-20%" width="140%" height="140%">
      <feDropShadow dx="0" dy="24" stdDeviation="24" flood-color="#020617" flood-opacity="0.25"/>
    </filter>
  </defs>
  <rect width="1200" height="760" rx="44" fill="url(#bg)"/>
  <circle cx="980" cy="155" r="190" fill="#99f6e4" opacity="0.14"/>
  <circle cx="164" cy="610" r="160" fill="#e0f2fe" opacity="0.13"/>
  <g filter="url(#shadow)">
    <rect x="118" y="92" width="964" height="560" rx="34" fill="#f8fafc"/>
    <rect x="148" y="128" width="904" height="72" rx="22" fill="#0f172a"/>
  </g>
  <text x="186" y="174" font-family="Inter, Arial, sans-serif" font-size="32" font-weight="900" fill="#ffffff">LiquidAI</text>
  <text x="342" y="174" font-family="Inter, Arial, sans-serif" font-size="16" fill="#99f6e4">AI-powered liquidity orchestration</text>
  <rect x="890" y="148" width="118" height="30" rx="15" fill="#2dd4bf"/>
  <text x="913" y="169" font-family="Inter, Arial, sans-serif" font-size="14" font-weight="800" fill="#042f2e">Live AI</text>
  <g font-family="Inter, Arial, sans-serif">
    <rect x="148" y="230" width="284" height="326" rx="24" fill="#ffffff" stroke="#ccfbf1"/>
    <text x="178" y="270" font-size="16" font-weight="800" fill="#134e4a">Portfolio Allocation</text>
    <circle cx="290" cy="390" r="86" fill="none" stroke="#ccfbf1" stroke-width="28"/>
    <path d="M290 304 A86 86 0 0 1 376 390" fill="none" stroke="#14b8a6" stroke-width="28" stroke-linecap="round"/>
    <path d="M376 390 A86 86 0 0 1 246 464" fill="none" stroke="#38bdf8" stroke-width="28" stroke-linecap="round"/>
    <text x="254" y="385" font-size="15" fill="#64748b">APR</text>
    <text x="244" y="421" font-size="34" font-weight="900" fill="#0f172a">18.4%</text>
    <rect x="178" y="506" width="224" height="24" rx="12" fill="#ecfeff"/>
    <rect x="178" y="506" width="162" height="24" rx="12" fill="#22d3ee"/>
    <text x="178" y="493" font-size="13" fill="#64748b">Risk-adjusted confidence</text>
    <rect x="472" y="230" width="282" height="326" rx="24" fill="#ffffff" stroke="#ccfbf1"/>
    <text x="502" y="270" font-size="16" font-weight="800" fill="#134e4a">AI Reasoning Cards</text>
    <rect x="502" y="304" width="222" height="58" rx="16" fill="#ecfeff"/>
    <text x="526" y="330" font-size="14" font-weight="800" fill="#0f172a">Volatility high</text>
    <text x="526" y="350" font-size="12" fill="#64748b">Reduce volatile LP exposure</text>
    <rect x="502" y="382" width="222" height="58" rx="16" fill="#f0fdf4"/>
    <text x="526" y="408" font-size="14" font-weight="800" fill="#0f172a">Fees rising</text>
    <text x="526" y="428" font-size="12" fill="#64748b">Hold concentrated range</text>
    <rect x="502" y="460" width="222" height="58" rx="16" fill="#eff6ff"/>
    <text x="526" y="486" font-size="14" font-weight="800" fill="#0f172a">Rebalance action</text>
    <text x="526" y="506" font-size="12" fill="#64748b">Move 12% to stable pool</text>
    <rect x="794" y="230" width="258" height="326" rx="24" fill="#ffffff" stroke="#ccfbf1"/>
    <text x="824" y="270" font-size="16" font-weight="800" fill="#134e4a">Live Pool Monitor</text>
    <polyline points="824,470 856,432 888,445 920,382 952,398 984,332 1022,358" fill="none" stroke="#14b8a6" stroke-width="5" stroke-linecap="round" stroke-linejoin="round"/>
    <rect x="824" y="304" width="178" height="18" rx="9" fill="#e2e8f0"/>
    <rect x="824" y="338" width="132" height="18" rx="9" fill="#e2e8f0"/>
    <rect x="824" y="506" width="180" height="28" rx="14" fill="#ccfbf1"/>
    <text x="852" y="526" font-size="13" font-weight="800" fill="#134e4a">Updated every 3 sec</text>
  </g>
</svg>
